<svg width="1909" height="1601" viewBox="0 0 1909 1601" fill="none" xmlns="http://www.w3.org/2000/svg">
<path d="M235.408 1524.49C231.508 1513.76 227.86 1518.26 176.507 1537C149.69 1546.78 123.86 1559.15 96.316 1567.07C73.385 1573.66 82.168 1576.67 57.614 1583.8C49.789 1586.07 43.657 1592.53 34.786 1592.22C32.278 1592.14 29.759 1595.09 27.09 1596.31C21.022 1599.09 13.908 1596.58 7.84497 1600.17C5.36797 1601.63 5.28496 1598.22 4.33496 1597.01C0.784965 1592.48 15.344 1594.3 34.344 1583.28C29.031 1582.23 25.258 1580.58 20.96 1582.21C18.759 1583.05 15.176 1585.85 16.253 1579.81C16.471 1578.59 15.762 1578.33 14.629 1578.81C9.73697 1580.88 5.33196 1577.36 0.438965 1577.96C10.794 1550.25 59.998 1548.72 149.467 1487.52C148.948 1486.75 148.769 1486.16 148.487 1486.1C144.109 1485.25 139.654 1484.09 138.676 1479.04C137.555 1473.24 142.413 1471.04 146.31 1468.76C171.726 1453.91 258.66 1406.06 291.567 1382.59C320.679 1361.83 379.421 1326.61 386.52 1317.54C385.005 1315.55 383.479 1316.56 382.121 1317.09C311.658 1344.51 306.64 1343.24 286.456 1347.51C283.345 1348.16 281.137 1347.83 279.779 1343.86C276.636 1334.68 276.594 1335.19 286.015 1328.32C320.104 1303.47 399.452 1268.27 450.605 1232.13C453.636 1229.98 457.628 1229.27 460.796 1225.72C449.9 1226.73 440.291 1222.93 429.945 1225.56C419.835 1228.14 409.142 1229.1 398.525 1229.58C384.228 1230.23 378.926 1216.26 385.218 1211.67C408.649 1194.56 408.63 1201.13 435.118 1183.4C440.372 1179.88 446.302 1179.93 451.672 1177.66C457.753 1175.09 462.74 1170.69 468.849 1168.01C514.037 1148.21 601.992 1103.48 602.048 1103.45C610.934 1099.48 616.183 1091.04 625.307 1088.23C626.139 1087.97 626.879 1087.24 627.527 1086.6C628.858 1085.27 633.131 1088.87 632.142 1084.14C631.206 1079.67 631.403 1082.23 593.785 1090.68C588.976 1091.75 583.147 1093.09 578.971 1097.44C576.235 1100.29 571.409 1101.37 568.018 1099.31C554.357 1090.98 534.695 1115.75 529.758 1103.02C529.478 1102.29 525.656 1102.26 523.853 1102.92C512.399 1107.13 501.23 1105.8 489.539 1103.35C484.172 1102.22 480.142 1101.85 476.884 1096.79C469.468 1085.29 473.837 1078.57 524.411 1061.98C538.876 1057.23 554.114 1055.81 568.346 1050.26C572.42 1048.67 577.46 1049.6 582.049 1049.27C594.397 1048.4 604.252 1040.42 615.914 1037.42C627.592 1034.41 722.553 1011.37 724.503 1001.63C724.275 1000.26 722.863 999.965 722.413 1000.31C715.235 1005.84 705.796 1001.41 698.383 1005.88C694.84 1008.02 692.068 1003.96 687.923 1004.66C677.678 1006.39 653.113 1014.4 635.951 999.274C631.829 995.642 628.02 994.461 623.092 994.496C615.252 994.553 606.542 987.569 604.948 980.07C599.833 955.998 713.09 967.707 778.103 956.224C818.176 949.146 841.58 960.698 833.31 948.404C822.889 932.912 831.723 919.248 823.278 917.717C817.598 916.687 809.332 907.238 809.527 901.29C810.054 885.176 799.816 902.657 786.887 881.909C778.208 867.98 787.202 854.12 780.504 849.601C765.948 839.778 764.281 824.741 768.158 810.789C770.077 803.883 773.021 801.214 766.313 799.781C760.889 798.622 759.812 793.038 760.111 788.866C760.659 781.231 759.492 773.305 762.814 765.944C767.253 756.106 745.79 765.348 749.353 744.445C752.756 724.482 754.975 719.063 748.18 713.599C742.567 709.086 739.359 702.336 741.174 694.113C743.062 685.558 744.992 677.21 750.604 670.124C752.589 667.617 753.403 665.058 749.038 663.217C739.52 659.204 738.248 648.608 741.355 640.296C746.299 627.069 753.027 620.806 745.79 619.051C742.017 618.136 742.241 615.192 742.46 612.454C744.301 589.423 754.879 572.367 776.63 563.155C780.861 561.363 782.322 555.558 788 555.582C775.86 551.549 750.591 557.915 743.674 543.04C741.167 537.648 730.758 532.563 733.529 522.854C744.693 483.741 763.406 502.23 771.715 491.443C770.967 489.67 769.606 489.771 768.635 489.79C759.158 489.976 752.663 484.351 746.548 478.286C745.408 477.155 723.261 466.282 736.893 437.052C745.312 419.001 764.312 427.816 771.375 423.691C769.337 419.371 765.235 416.251 761.56 415.518C739.613 411.138 733.496 374.871 744.887 360.622C749.073 355.386 757.165 337.918 775.575 345.326C780.355 347.25 784.989 346.152 790.107 348.982C788.992 342.38 785.547 338.46 781.943 335.706C773.135 328.978 754.783 301.718 779.226 274.509C783.614 269.625 786.949 271.304 816.028 275.023C816.307 269.538 816.99 264.887 810.385 262.204C808.744 261.537 806.573 256.205 804.739 253.414C799.183 244.961 801.112 235.097 797.708 226.498C796.159 222.587 796.976 219.07 798.617 215.895C801.823 209.695 801.301 189.816 815.402 193.651C847.399 202.354 828.928 202.961 848.897 206.675C854.384 207.695 850.299 195.789 843.096 188.58C833.448 178.924 829.014 166.354 821.475 155.648C819.847 153.336 819.572 150.569 819.04 147.824C816.618 135.325 814.691 122.668 809.33 110.945C807.464 106.866 806.867 103.103 810.462 99.549C824.895 85.277 902.363 182.456 929.056 187.932C932.277 188.593 934.522 192.897 935.019 193.922C938.237 200.554 943.953 201.086 949.701 202.138C955.842 203.262 952.548 213.198 959.736 208.894C962.198 207.419 963.186 217.113 966.597 214.827C970.764 212.035 957.654 201.376 955.532 197.506C951.572 190.284 945.6 184.244 940.319 178.221C930.905 167.485 925.235 154.481 916.406 143.684C908.729 134.295 901.574 124.506 895.48 114.225C889.483 104.108 880.096 95.334 878.806 83.078C878.169 77.028 873.284 72.492 874.471 65.837C874.86 63.657 871.308 60.605 870.053 57.308C865.392 45.065 864.58 31.856 859.741 19.691C858.089 15.537 859.481 10.628 858.06 6.14801C857.113 3.16401 860.112 -2.643 866.556 3.064C887.053 21.217 938.519 94.627 946.409 106.222C1002.76 189.016 1005.54 187.77 1014.4 188.245C1023.06 188.709 1031.58 192.321 1040.08 194.809C1041.57 195.245 1042.82 196.804 1044.31 195.172C1047.2 192.003 1038.69 175.786 1031.71 167.171C1037.62 168.662 1041.94 172.552 1045.6 177.028C1077.35 215.848 1073.58 216.087 1075.68 209.668C1076.21 208.046 1077.32 210.128 1078.17 210.508C1083.11 212.742 1085.17 217.963 1089.58 221.943C1089.42 215.893 1088.94 211.002 1085.25 206.6C1076.56 196.242 1074.65 182.619 1068.65 170.934C1064.96 163.761 1060.66 156.939 1056.89 149.857C1050.45 137.777 1041.06 106.848 1040.94 93.426C1040.93 92.418 1036.84 42.368 1038.15 20.797C1041.69 -37.257 1164.79 341.307 1165.6 395.116C1165.64 397.431 1166.71 399.048 1167.84 400.717C1231.23 494.048 1185.95 540.863 1201.03 583.105C1205.08 594.421 1203.11 607.606 1206.73 619.491C1249.27 759.076 1256.54 785.315 1288.67 798.344C1295.75 801.218 1301.87 806.847 1310.11 805.886C1351.91 801.006 1515.01 732.979 1564.46 798.347C1566.57 801.134 1565.6 813.521 1562.45 814.825C1548.8 820.484 1576.4 837.471 1559.35 868.266C1555.13 875.88 1540.73 893.645 1534.74 887.102C1526.39 877.972 1541.9 863.974 1533.24 848.894C1531.33 845.565 1529.7 846.718 1529.24 848.252C1525.21 861.736 1514.17 865.692 1502.43 869.644C1490.57 873.633 1495.54 885.023 1488.5 893.838C1479.04 905.694 1468.09 916.111 1456.65 926.034C1453.29 928.941 1449.04 928.132 1445.55 928.248C1428.46 928.815 1430.87 936.507 1392.29 937.104C1384.64 937.223 1363.4 934.327 1371.69 943.079C1377.49 949.208 1474.53 1018.76 1495.86 1029.43C1614.54 1088.79 1642.59 1103.09 1670.8 1138.35C1680.37 1150.3 1698.64 1152.08 1759.39 1194.75C1802.62 1225.11 1873.58 1262.7 1908.42 1265.31C1897.68 1273.33 1870.24 1275.59 1858.47 1263.96C1853.68 1259.23 1845.17 1260.85 1840.14 1255.53C1839.4 1262.69 1841.13 1266.86 1848.77 1271.97C1860.98 1280.12 1873.01 1288.85 1888.1 1291.21C1909.77 1294.59 1844.76 1314.58 1815.8 1300.31C1811.16 1298.02 1814.7 1304.52 1811.19 1304.41C1810.66 1302.83 1807.26 1301.96 1811.03 1299.07C1814.45 1296.45 1815.66 1293.8 1810.58 1290.08C1806.24 1286.9 1803.06 1281.82 1798.58 1277.61C1797.7 1284.71 1803.14 1289.05 1804.32 1294.86C1808.84 1316.94 1869.75 1366.13 1845.32 1364.65C1834.78 1364.02 1824.06 1366.03 1813.68 1363.05C1804.39 1360.39 1768.86 1356.42 1763.3 1336.99C1761.31 1330.05 1754.23 1332.82 1753.23 1332.73C1743.2 1331.82 1743.13 1331.8 1745.1 1341.57C1747.91 1355.55 1767.5 1406.3 1748.31 1399.4C1739.47 1396.22 1733.72 1400.34 1722.53 1392.54C1703.47 1379.25 1699.8 1387.08 1684.19 1372.01C1681.22 1369.15 1679.31 1365.48 1675.4 1363.2C1664.37 1356.76 1668.07 1347.23 1662.92 1348.26C1659.72 1348.89 1660.47 1351.94 1660.68 1353.98C1661.13 1358.5 1659.32 1363.78 1664.53 1366.98C1665.17 1367.38 1665.4 1369.35 1664.64 1369.33C1656.82 1369.12 1660.18 1375.82 1659.4 1378.91C1656.53 1390.17 1652.98 1392.09 1640.81 1390.83C1596.24 1386.23 1596.01 1381.42 1578.62 1366.28C1575.49 1363.55 1580.61 1362.37 1575.33 1355.73C1574.81 1365.14 1570.62 1373.24 1567.66 1381.75C1565.22 1388.78 1559.66 1394.25 1549.85 1393.68C1517.11 1391.8 1496.08 1385.59 1491.62 1365.46C1490.4 1359.97 1485.97 1362.12 1484.44 1366.19C1482.46 1371.48 1479.3 1376.08 1476.47 1380.91C1469.73 1392.46 1439.76 1399.55 1419.03 1382.62C1412.89 1377.61 1409.33 1366.11 1404.19 1373.38C1401.35 1377.41 1395.89 1377.54 1391.92 1378.36C1383.16 1380.17 1374.13 1383.52 1364.92 1380.1C1343.76 1372.25 1366.7 1335.66 1371.26 1323.39C1371.82 1321.88 1372.78 1319.7 1371.35 1318.96C1369.38 1317.92 1368.59 1320.19 1367.43 1321.64C1328.53 1369.97 1333.58 1364.67 1308.45 1364.61C1299.39 1364.59 1288.73 1353.65 1289.57 1344.74C1289.89 1341.3 1293.99 1338.78 1292.56 1333.7C1287.38 1337.17 1283.51 1342.3 1277.58 1343.7C1266.19 1346.38 1254.7 1346.81 1243.41 1343.33C1231.74 1339.75 1230.76 1351.88 1201.73 1342.65C1200.86 1342.38 1199.5 1342.35 1199.19 1341.77C1192.74 1329.61 1180.16 1334.46 1170.45 1331.65C1155.19 1327.24 1147.91 1325.89 1149.33 1321C1151.33 1314.12 1145.7 1312.63 1135.22 1310.61C1115.07 1306.71 1135.46 1289.05 1117.69 1289.91C1108.5 1290.35 1094.43 1283.03 1093.21 1278.92C1089.99 1268.07 1080.59 1267.9 1072.23 1266.2C1059.8 1263.67 1050.08 1253.16 1049.24 1240.43C1049.05 1237.56 1048.6 1235.62 1044.99 1235.65C1036.73 1235.71 1030.1 1230.87 1023.11 1227.47C1006.42 1219.37 1023.63 1200.32 1012.29 1195.51C1007 1193.26 989.587 1191.06 995.831 1170.02C998.833 1159.91 984.695 1159.7 972.568 1151.49C959.621 1142.72 965.329 1136.15 972.616 1125.07C965.903 1125.75 962.944 1119.7 957.399 1118.56C948.481 1116.73 956.258 1122.36 932.815 1155.41C929.389 1160.24 927.52 1166.46 923.732 1171.33C884.681 1221.56 825.33 1287.17 770.096 1318.19C745.312 1332.1 749.406 1315.33 739.855 1323C723.929 1335.79 671.94 1381.64 625.086 1394.85C623.882 1395.19 622.786 1394.92 621.96 1393.96C614.215 1384.93 610.474 1403.01 600.173 1401.11C599.537 1401 598.658 1401.93 597.959 1402.47C589.853 1408.67 583.827 1416.88 573.569 1421.2C560.766 1426.58 509.721 1468.52 475.199 1485.25C466.552 1489.44 461.225 1496.65 453.784 1501.47C422.27 1521.89 429.759 1513.47 412.492 1523.19C403.945 1528.01 395.086 1517.05 402.896 1509.84C421.001 1493.13 437.319 1474.46 457.625 1460.17C461.314 1457.57 464.244 1454.19 467.206 1449.69C449.402 1457.06 431.774 1462.16 414.845 1469.01C399.952 1475.04 393.109 1488.79 373.224 1497.23C362.497 1501.77 354.449 1509.7 344.723 1515.35C292.395 1545.71 297.208 1540.42 291.284 1545.74C286.602 1549.94 279.778 1550.71 274.439 1554.37C264.032 1561.5 226.934 1583.38 214.599 1582.39C206.845 1581.76 205.662 1574.22 209.101 1570.69C217.376 1562.21 225.103 1553.13 235.858 1547.39C240.836 1544.73 250.172 1530.04 256.012 1526.98C258.053 1525.91 259.73 1524.23 258.465 1521.41C256.344 1516.69 252.682 1519.89 244.181 1517.8C241.076 1517.03 235.873 1515.92 235.408 1524.49Z" fill="#4F46E5"/>
</svg>
