<svg width="220" height="115" viewBox="0 0 220 115" fill="none" xmlns="http://www.w3.org/2000/svg">
<path d="M4.28236 93.4017H27.2643V32.6119H15.3451L0 36.8315V44.4838L4.28236 47.13V93.4017ZM14.6314 26.0323H17.3435L29.5483 14.232V11.7289L17.3435 0H14.6314L2.92628 11.7289V14.232L14.6314 26.0323Z" fill="black"/>
<path d="M92.3534 102.453V82.7145L49.5298 85.9328C51.0524 84.0734 52.8843 82.2139 55.0255 80.3544C57.2143 78.495 59.3792 76.8501 61.5204 75.4197C63.7092 73.9417 65.9931 72.3922 68.3722 70.7711C70.7989 69.1501 73.059 67.6244 75.1526 66.194C77.2938 64.7637 79.3398 63.1426 81.2906 61.3308C83.2415 59.519 84.9068 57.7073 86.2867 55.8955C87.7142 54.036 88.8323 51.9144 89.6412 49.5304C90.4977 47.0989 90.9259 44.5481 90.9259 41.8781C90.9259 38.2069 90.3787 34.9647 89.2844 32.1517C88.19 29.291 86.7149 26.9548 84.8593 25.143C83.0036 23.3312 80.7434 21.8294 78.0789 20.6374C75.4619 19.4455 72.7259 18.6111 69.871 18.1343C67.0161 17.6575 63.9233 17.4191 60.5926 17.4191C45.9374 17.4191 36.0166 21.3526 30.8302 29.2195L31.9008 46.0261L44.8906 46.0976L48.3165 31.365C50.4577 30.6975 53.0746 30.3638 56.1675 30.3638C59.8313 30.3638 62.591 32.2471 64.4467 36.0137C65.4935 38.1115 66.0169 40.3285 66.0169 42.6648C66.0169 46.7174 64.3753 50.8416 61.0922 55.0373C57.809 59.233 52.3133 64.5014 44.6051 70.8426C35.3267 78.0897 30.6874 85.1223 30.6874 91.9403C30.6874 97.7093 30.8064 100.928 31.0443 101.595L31.4725 102.453H92.3534Z" fill="#4F46E5"/>
<path d="M120.134 93.4017V51.7071C120.229 51.6117 120.396 51.4687 120.634 51.278C120.919 51.0396 121.109 50.8727 121.205 50.7774C121.347 50.682 121.538 50.539 121.776 50.3483C122.061 50.1099 122.275 49.943 122.418 49.8476C122.561 49.7523 122.751 49.6331 122.989 49.4901C123.227 49.2993 123.441 49.1801 123.631 49.1325C123.822 49.0371 124.036 48.9417 124.274 48.8464C124.559 48.7034 124.797 48.608 124.987 48.5603C125.225 48.5126 125.463 48.465 125.701 48.4173C125.987 48.3696 126.272 48.3458 126.558 48.3458C130.507 48.3458 132.41 50.5867 132.267 55.0684V93.4017H155.82V57.1424C155.82 56.8087 155.844 56.3557 155.892 55.7836C155.892 55.2114 155.892 54.7823 155.892 54.4963C155.892 46.1049 154.536 40.1213 151.824 36.5454C149.159 32.9695 144.567 31.1816 138.049 31.1816C136.193 31.1816 134.29 31.563 132.339 32.3259C130.436 33.041 128.794 33.9231 127.414 34.972C126.034 35.9733 124.773 36.9983 123.631 38.0473C122.537 39.0962 121.704 40.0021 121.133 40.7649L120.277 41.8377V32.6119H108.143L92.7984 36.8315V44.4838L97.0807 47.13V93.4017H120.134Z" fill="black"/>
<path d="M196.019 93.4017C199.968 93.4017 203.465 92.5912 206.511 90.9702C209.603 89.3014 212.125 87.0128 214.076 84.1045C216.027 81.1961 217.502 77.8586 218.501 74.092C219.5 70.2778 220 66.1298 220 61.648C220 52.1124 218.144 44.6507 214.433 39.2631C210.769 33.8754 205.012 31.1816 197.161 31.1816C193.925 31.1816 191.094 31.7776 188.667 32.9695C186.241 34.1615 184.171 35.6395 182.458 37.4036V32.6119H170.539L155.194 36.8315V44.4838L159.476 47.13V115H182.458V90.398C184.171 91.2562 186.169 91.9714 188.453 92.5435C190.737 93.1157 193.259 93.4017 196.019 93.4017ZM185.527 83.4608C185.051 83.4608 184.552 83.437 184.028 83.3893C183.552 83.3416 183.029 83.2463 182.458 83.1032V45.342C184.123 44.3885 185.741 43.9117 187.311 43.9117C189.595 43.9117 191.451 44.9606 192.878 47.0585C194.353 49.1563 195.091 52.3507 195.091 56.6418V68.7997C195.091 78.5738 191.903 83.4608 185.527 83.4608Z" fill="black"/>
</svg>
